<mxfile host="Electron" modified="2024-03-22T12:06:18.389Z" agent="Mozilla/5.0 (Windows NT 10.0; Win64; x64) AppleWebKit/537.36 (KHTML, like Gecko) draw.io/24.0.4 Chrome/120.0.6099.109 Electron/28.1.0 Safari/537.36" etag="_vUvhtWwLuQLW0oPHYWr" version="24.0.4" type="device">
  <diagram name="Page-1" id="929967ad-93f9-6ef4-fab6-5d389245f69c">
    <mxGraphModel dx="1418" dy="820" grid="1" gridSize="10" guides="1" tooltips="1" connect="1" arrows="1" fold="1" page="1" pageScale="1.5" pageWidth="1169" pageHeight="826" background="none" math="0" shadow="0">
      <root>
        <mxCell id="0" style=";html=1;" />
        <mxCell id="1" style=";html=1;" parent="0" />
        <mxCell id="gtqGe1klH2HYUitqdnIb-1" value="Consultorio Dr. Jekyl" style="rounded=1;whiteSpace=wrap;html=1;" parent="1" vertex="1">
          <mxGeometry x="70" y="130" width="610" height="40" as="geometry" />
        </mxCell>
        <mxCell id="gtqGe1klH2HYUitqdnIb-9" style="edgeStyle=orthogonalEdgeStyle;rounded=0;orthogonalLoop=1;jettySize=auto;html=1;entryX=0;entryY=0.5;entryDx=0;entryDy=0;curved=1;" parent="1" source="gtqGe1klH2HYUitqdnIb-3" target="gtqGe1klH2HYUitqdnIb-6" edge="1">
          <mxGeometry relative="1" as="geometry" />
        </mxCell>
        <mxCell id="gtqGe1klH2HYUitqdnIb-10" style="edgeStyle=orthogonalEdgeStyle;rounded=0;orthogonalLoop=1;jettySize=auto;html=1;entryX=0;entryY=0.5;entryDx=0;entryDy=0;curved=1;" parent="1" source="gtqGe1klH2HYUitqdnIb-3" target="gtqGe1klH2HYUitqdnIb-7" edge="1">
          <mxGeometry relative="1" as="geometry" />
        </mxCell>
        <mxCell id="gtqGe1klH2HYUitqdnIb-3" value="Atendente" style="shape=umlActor;verticalLabelPosition=bottom;verticalAlign=top;html=1;" parent="1" vertex="1">
          <mxGeometry x="70" y="300" width="30" height="60" as="geometry" />
        </mxCell>
        <mxCell id="gtqGe1klH2HYUitqdnIb-12" value="SisConsulta" style="swimlane;horizontal=0;whiteSpace=wrap;html=1;" parent="1" vertex="1">
          <mxGeometry x="230" y="240" width="450" height="200" as="geometry" />
        </mxCell>
        <mxCell id="gtqGe1klH2HYUitqdnIb-7" value="Serviço&amp;nbsp;&lt;div&gt;de Agendamento&lt;/div&gt;" style="rounded=1;whiteSpace=wrap;html=1;" parent="gtqGe1klH2HYUitqdnIb-12" vertex="1">
          <mxGeometry x="90" y="120" width="120" height="60" as="geometry" />
        </mxCell>
        <mxCell id="gtqGe1klH2HYUitqdnIb-6" value="Serviço&amp;nbsp;&lt;div&gt;de Cadastro&lt;/div&gt;" style="rounded=1;whiteSpace=wrap;html=1;" parent="gtqGe1klH2HYUitqdnIb-12" vertex="1">
          <mxGeometry x="90" y="30" width="120" height="60" as="geometry" />
        </mxCell>
        <mxCell id="gtqGe1klH2HYUitqdnIb-8" value="Banco de dados&lt;div&gt;postgres&lt;/div&gt;&lt;div&gt;dbconsulta&lt;/div&gt;" style="shape=cylinder3;whiteSpace=wrap;html=1;boundedLbl=1;backgroundOutline=1;size=15;" parent="gtqGe1klH2HYUitqdnIb-12" vertex="1">
          <mxGeometry x="310" y="60" width="100" height="90" as="geometry" />
        </mxCell>
        <mxCell id="gtqGe1klH2HYUitqdnIb-13" style="edgeStyle=orthogonalEdgeStyle;rounded=0;orthogonalLoop=1;jettySize=auto;html=1;entryX=0;entryY=0.5;entryDx=0;entryDy=0;entryPerimeter=0;curved=1;" parent="gtqGe1klH2HYUitqdnIb-12" source="gtqGe1klH2HYUitqdnIb-6" target="gtqGe1klH2HYUitqdnIb-8" edge="1">
          <mxGeometry relative="1" as="geometry">
            <Array as="points">
              <mxPoint x="280" y="60" />
              <mxPoint x="280" y="105" />
            </Array>
          </mxGeometry>
        </mxCell>
        <mxCell id="gtqGe1klH2HYUitqdnIb-14" style="edgeStyle=orthogonalEdgeStyle;rounded=0;orthogonalLoop=1;jettySize=auto;html=1;entryX=0;entryY=0.5;entryDx=0;entryDy=0;entryPerimeter=0;curved=1;" parent="gtqGe1klH2HYUitqdnIb-12" source="gtqGe1klH2HYUitqdnIb-7" target="gtqGe1klH2HYUitqdnIb-8" edge="1">
          <mxGeometry relative="1" as="geometry" />
        </mxCell>
        <mxCell id="gtqGe1klH2HYUitqdnIb-23" style="rounded=0;orthogonalLoop=1;jettySize=auto;html=1;edgeStyle=orthogonalEdgeStyle;curved=1;fillColor=#a20025;strokeColor=#6F0000;" parent="gtqGe1klH2HYUitqdnIb-12" edge="1">
          <mxGeometry relative="1" as="geometry">
            <mxPoint x="210" y="75" as="sourcePoint" />
            <mxPoint x="304" y="230" as="targetPoint" />
          </mxGeometry>
        </mxCell>
        <mxCell id="gtqGe1klH2HYUitqdnIb-15" value="SaudeBoa Planos" style="swimlane;horizontal=0;whiteSpace=wrap;html=1;" parent="1" vertex="1">
          <mxGeometry x="230" y="470" width="200" height="200" as="geometry" />
        </mxCell>
        <mxCell id="zIGGOpNnjNbWZePiELcf-3" value="" style="edgeStyle=orthogonalEdgeStyle;rounded=0;orthogonalLoop=1;jettySize=auto;html=1;" parent="gtqGe1klH2HYUitqdnIb-15" source="gtqGe1klH2HYUitqdnIb-17" target="zIGGOpNnjNbWZePiELcf-1" edge="1">
          <mxGeometry relative="1" as="geometry" />
        </mxCell>
        <mxCell id="gtqGe1klH2HYUitqdnIb-17" value="Serviço de Consulta" style="rounded=1;whiteSpace=wrap;html=1;" parent="gtqGe1klH2HYUitqdnIb-15" vertex="1">
          <mxGeometry x="50" y="20" width="120" height="60" as="geometry" />
        </mxCell>
        <mxCell id="zIGGOpNnjNbWZePiELcf-1" value="DB" style="shape=cylinder3;whiteSpace=wrap;html=1;boundedLbl=1;backgroundOutline=1;size=15;" parent="gtqGe1klH2HYUitqdnIb-15" vertex="1">
          <mxGeometry x="80" y="100" width="60" height="80" as="geometry" />
        </mxCell>
        <mxCell id="gtqGe1klH2HYUitqdnIb-16" value="Vida Longa Planos" style="swimlane;horizontal=0;whiteSpace=wrap;html=1;startSize=23;" parent="1" vertex="1">
          <mxGeometry x="460" y="470" width="200" height="200" as="geometry" />
        </mxCell>
        <mxCell id="zIGGOpNnjNbWZePiELcf-4" value="" style="edgeStyle=orthogonalEdgeStyle;rounded=0;orthogonalLoop=1;jettySize=auto;html=1;" parent="gtqGe1klH2HYUitqdnIb-16" source="gtqGe1klH2HYUitqdnIb-18" target="zIGGOpNnjNbWZePiELcf-2" edge="1">
          <mxGeometry relative="1" as="geometry" />
        </mxCell>
        <mxCell id="gtqGe1klH2HYUitqdnIb-18" value="Serviço de Consulta" style="rounded=1;whiteSpace=wrap;html=1;" parent="gtqGe1klH2HYUitqdnIb-16" vertex="1">
          <mxGeometry x="50" y="20" width="120" height="60" as="geometry" />
        </mxCell>
        <mxCell id="zIGGOpNnjNbWZePiELcf-2" value="DB" style="shape=cylinder3;whiteSpace=wrap;html=1;boundedLbl=1;backgroundOutline=1;size=15;" parent="gtqGe1klH2HYUitqdnIb-16" vertex="1">
          <mxGeometry x="80" y="100" width="60" height="80" as="geometry" />
        </mxCell>
        <mxCell id="gtqGe1klH2HYUitqdnIb-20" style="edgeStyle=orthogonalEdgeStyle;rounded=0;orthogonalLoop=1;jettySize=auto;html=1;curved=1;fillColor=#a20025;strokeColor=#6F0000;" parent="1" source="gtqGe1klH2HYUitqdnIb-7" edge="1">
          <mxGeometry relative="1" as="geometry">
            <mxPoint x="350" y="470" as="targetPoint" />
          </mxGeometry>
        </mxCell>
        <mxCell id="gtqGe1klH2HYUitqdnIb-21" style="edgeStyle=orthogonalEdgeStyle;rounded=0;orthogonalLoop=1;jettySize=auto;html=1;entryX=0.25;entryY=0;entryDx=0;entryDy=0;curved=1;fillColor=#a20025;strokeColor=#6F0000;" parent="1" source="gtqGe1klH2HYUitqdnIb-7" target="gtqGe1klH2HYUitqdnIb-16" edge="1">
          <mxGeometry relative="1" as="geometry" />
        </mxCell>
        <mxCell id="gtqGe1klH2HYUitqdnIb-22" style="edgeStyle=orthogonalEdgeStyle;rounded=0;orthogonalLoop=1;jettySize=auto;html=1;curved=1;entryX=0.25;entryY=0;entryDx=0;entryDy=0;fillColor=#a20025;strokeColor=#6F0000;" parent="1" source="gtqGe1klH2HYUitqdnIb-6" target="gtqGe1klH2HYUitqdnIb-15" edge="1">
          <mxGeometry relative="1" as="geometry">
            <Array as="points">
              <mxPoint x="310" y="300" />
              <mxPoint x="310" y="400" />
              <mxPoint x="280" y="400" />
            </Array>
          </mxGeometry>
        </mxCell>
        <mxCell id="zIGGOpNnjNbWZePiELcf-5" value="Serviço de Cadastro" style="swimlane;horizontal=0;whiteSpace=wrap;html=1;" parent="1" vertex="1">
          <mxGeometry x="220" y="770" width="560" height="200" as="geometry" />
        </mxCell>
        <mxCell id="zIGGOpNnjNbWZePiELcf-8" value="" style="edgeStyle=orthogonalEdgeStyle;rounded=0;orthogonalLoop=1;jettySize=auto;html=1;" parent="zIGGOpNnjNbWZePiELcf-5" source="zIGGOpNnjNbWZePiELcf-6" target="zIGGOpNnjNbWZePiELcf-7" edge="1">
          <mxGeometry relative="1" as="geometry" />
        </mxCell>
        <mxCell id="zIGGOpNnjNbWZePiELcf-22" style="edgeStyle=orthogonalEdgeStyle;rounded=0;orthogonalLoop=1;jettySize=auto;html=1;entryX=0;entryY=0.75;entryDx=0;entryDy=0;" parent="zIGGOpNnjNbWZePiELcf-5" source="zIGGOpNnjNbWZePiELcf-6" target="zIGGOpNnjNbWZePiELcf-17" edge="1">
          <mxGeometry relative="1" as="geometry" />
        </mxCell>
        <mxCell id="zIGGOpNnjNbWZePiELcf-6" value="(Controller)&lt;div&gt;CadastroResource&lt;/div&gt;" style="rounded=1;whiteSpace=wrap;html=1;" parent="zIGGOpNnjNbWZePiELcf-5" vertex="1">
          <mxGeometry x="50" y="30" width="120" height="60" as="geometry" />
        </mxCell>
        <mxCell id="zIGGOpNnjNbWZePiELcf-10" value="" style="edgeStyle=orthogonalEdgeStyle;rounded=0;orthogonalLoop=1;jettySize=auto;html=1;" parent="zIGGOpNnjNbWZePiELcf-5" source="zIGGOpNnjNbWZePiELcf-7" target="zIGGOpNnjNbWZePiELcf-9" edge="1">
          <mxGeometry relative="1" as="geometry" />
        </mxCell>
        <mxCell id="zIGGOpNnjNbWZePiELcf-26" style="edgeStyle=orthogonalEdgeStyle;rounded=0;orthogonalLoop=1;jettySize=auto;html=1;entryX=0.5;entryY=0;entryDx=0;entryDy=0;" parent="zIGGOpNnjNbWZePiELcf-5" source="zIGGOpNnjNbWZePiELcf-7" target="zIGGOpNnjNbWZePiELcf-23" edge="1">
          <mxGeometry relative="1" as="geometry" />
        </mxCell>
        <mxCell id="zIGGOpNnjNbWZePiELcf-7" value="CadastroService" style="whiteSpace=wrap;html=1;rounded=1;" parent="zIGGOpNnjNbWZePiELcf-5" vertex="1">
          <mxGeometry x="230" y="30" width="120" height="60" as="geometry" />
        </mxCell>
        <mxCell id="zIGGOpNnjNbWZePiELcf-27" style="edgeStyle=orthogonalEdgeStyle;rounded=0;orthogonalLoop=1;jettySize=auto;html=1;entryX=0.75;entryY=0;entryDx=0;entryDy=0;" parent="zIGGOpNnjNbWZePiELcf-5" source="zIGGOpNnjNbWZePiELcf-9" target="zIGGOpNnjNbWZePiELcf-18" edge="1">
          <mxGeometry relative="1" as="geometry" />
        </mxCell>
        <mxCell id="zIGGOpNnjNbWZePiELcf-9" value="CadastroRepository" style="whiteSpace=wrap;html=1;rounded=1;" parent="zIGGOpNnjNbWZePiELcf-5" vertex="1">
          <mxGeometry x="410" y="30" width="120" height="60" as="geometry" />
        </mxCell>
        <mxCell id="zIGGOpNnjNbWZePiELcf-24" style="edgeStyle=orthogonalEdgeStyle;rounded=0;orthogonalLoop=1;jettySize=auto;html=1;" parent="zIGGOpNnjNbWZePiELcf-5" source="zIGGOpNnjNbWZePiELcf-17" target="zIGGOpNnjNbWZePiELcf-23" edge="1">
          <mxGeometry relative="1" as="geometry" />
        </mxCell>
        <mxCell id="zIGGOpNnjNbWZePiELcf-17" value="ClienteDTO" style="rounded=1;whiteSpace=wrap;html=1;" parent="zIGGOpNnjNbWZePiELcf-5" vertex="1">
          <mxGeometry x="90" y="120" width="110" height="60" as="geometry" />
        </mxCell>
        <mxCell id="zIGGOpNnjNbWZePiELcf-18" value="ClienteEntity" style="rounded=1;whiteSpace=wrap;html=1;" parent="zIGGOpNnjNbWZePiELcf-5" vertex="1">
          <mxGeometry x="380" y="120" width="120" height="60" as="geometry" />
        </mxCell>
        <mxCell id="zIGGOpNnjNbWZePiELcf-25" value="" style="edgeStyle=orthogonalEdgeStyle;rounded=0;orthogonalLoop=1;jettySize=auto;html=1;" parent="zIGGOpNnjNbWZePiELcf-5" source="zIGGOpNnjNbWZePiELcf-23" target="zIGGOpNnjNbWZePiELcf-18" edge="1">
          <mxGeometry relative="1" as="geometry" />
        </mxCell>
        <mxCell id="zIGGOpNnjNbWZePiELcf-23" value="Utils&lt;div&gt;Mapper&lt;/div&gt;" style="rounded=1;whiteSpace=wrap;html=1;" parent="zIGGOpNnjNbWZePiELcf-5" vertex="1">
          <mxGeometry x="230" y="120" width="120" height="60" as="geometry" />
        </mxCell>
        <mxCell id="zIGGOpNnjNbWZePiELcf-14" value="" style="shape=cylinder3;whiteSpace=wrap;html=1;boundedLbl=1;backgroundOutline=1;size=15;" parent="1" vertex="1">
          <mxGeometry x="850" y="840" width="60" height="80" as="geometry" />
        </mxCell>
        <mxCell id="zIGGOpNnjNbWZePiELcf-13" value="" style="edgeStyle=orthogonalEdgeStyle;rounded=0;orthogonalLoop=1;jettySize=auto;html=1;entryX=0;entryY=0.5;entryDx=0;entryDy=0;entryPerimeter=0;" parent="1" source="zIGGOpNnjNbWZePiELcf-9" target="zIGGOpNnjNbWZePiELcf-14" edge="1">
          <mxGeometry relative="1" as="geometry">
            <mxPoint x="770" y="880" as="targetPoint" />
          </mxGeometry>
        </mxCell>
        <mxCell id="zIGGOpNnjNbWZePiELcf-20" style="edgeStyle=orthogonalEdgeStyle;rounded=0;orthogonalLoop=1;jettySize=auto;html=1;" parent="1" source="zIGGOpNnjNbWZePiELcf-19" target="zIGGOpNnjNbWZePiELcf-5" edge="1">
          <mxGeometry relative="1" as="geometry" />
        </mxCell>
        <mxCell id="zIGGOpNnjNbWZePiELcf-19" value="Atendente" style="shape=umlActor;verticalLabelPosition=bottom;verticalAlign=top;html=1;" parent="1" vertex="1">
          <mxGeometry x="80" y="870" width="30" height="60" as="geometry" />
        </mxCell>
      </root>
    </mxGraphModel>
  </diagram>
</mxfile>
